:SAMPLES-PER-SECOND 30
:FRAME-RANGE 1-744
:FULLY-SPECIFIED
:DEGREES
70
root  -37.0622 39.2096 -125.867 -178.222 32.5998 -179.261
RightUpLeg  -9.01013 -7.99878 -1.81937
RightLeg  19.7148 3.16456 1.57098
RightFoot  -10.7779 -0.072867 -0.0246529
RightToes  -5.28216e-011 1.2921e-014 -6.02303e-014
Spine  -6.29049 -3.57495 5.58193
Spine1  9.73995 -5.02407 4.3268
HEad  33.4622 -2.23041 0.756067
LeftShoulder1  1.29052 -1.54993 -20.393
LeftArm  -5.64512 5.34206 -53.2382
LeftForeArm  36.4313 3.82216 -11.3914
LeftHand  -0.0214895 4.91412 2.89977
RightShoulder  0.809682 -0.917991 27.7561
RightArm  -22.9271 -0.518444 46.8269
RightForeArm  59.539 -1.65891 5.48508
RightHand  0.0621387 -5.87626 -17.9418
LeftUpLeg  -17.3583 4.76909 4.45566
LeftLeg  35.3368 10.274 8.08703
LeftFoot  -8.33373 0.272538 -8.4712
LeftToes  -9.4837e-011 -7.11147e-011 -1.07582e-011
71
root  -36.66 39.2272 -126.601 -178.36 32.9192 -179.419
RightUpLeg  -7.2359 -8.35894 -2.35801
RightLeg  19.1424 3.86144 1.88152
RightFoot  -11.8045 -0.0805162 -0.149724
RightToes  -5.28216e-011 1.2921e-014 -6.02303e-014
Spine  -6.42508 -3.41254 5.57792
Spine1  9.79967 -4.73798 3.63162
HEad  34.1342 -2.21961 0.697235
LeftShoulder1  1.21277 -1.27837 -20.2611
LeftArm  -5.57214 6.03102 -52.7071
LeftForeArm  36.3058 3.66208 -11.4191
LeftHand  -0.0219457 4.88679 2.97638
RightShoulder  0.833623 -0.84562 27.7404
RightArm  -22.7627 -0.151457 47.1123
RightForeArm  59.487 -1.05976 5.63046
RightHand  0.0293418 -5.66023 -18.0196
LeftUpLeg  -17.9117 2.91443 5.43902
LeftLeg  29.4008 11.5457 7.28804
LeftFoot  -7.3248 0.338007 -8.37889
LeftToes  -9.4837e-011 -7.11147e-011 -1.07582e-011
72
root  -36.2988 39.2191 -127.336 -178.375 33.5816 -179.636
RightUpLeg  -5.83127 -8.45688 -2.94399
RightLeg  18.7626 4.5853 2.08877
RightFoot  -12.7562 -0.0901818 -0.312146
RightToes  -5.28216e-011 1.2921e-014 -6.02303e-014
Spine  -6.41215 -3.10562 5.33524
Spine1  9.61018 -4.388 3.34661
HEad  34.7301 -2.09005 0.32664
LeftShoulder1  1.14392 -0.969999 -20.5785
LeftArm  -5.22246 6.69736 -51.8953
LeftForeArm  36.18 3.4043 -11.5415
LeftHand  -0.0243401 4.82862 2.85894
RightShoulder  0.876715 -0.687103 27.3363
RightArm  -22.6346 0.0480822 47.3353
RightForeArm  59.3451 -0.659392 5.73683
RightHand  -0.0940399 -4.8554 -17.9539
LeftUpLeg  -18.3166 0.508141 6.79533
LeftLeg  22.757 11.8446 5.71986
LeftFoot  -5.0269 0.509712 -8.68377
LeftToes  -9.4837e-011 -7.11147e-011 -1.07582e-011
73
root  -35.9787 39.1687 -128.108 -178.292 34.57 -179.747
RightUpLeg  -4.62953 -8.26518 -3.53581
RightLeg  18.6323 5.63628 2.33625
RightFoot  -13.9306 -0.0903295 0.174636
RightToes  -5.28216e-011 1.2921e-014 -6.02303e-014
Spine  -6.32842 -2.79466 5.23467
Spine1  9.43268 -3.99106 2.90463
HEad  35.0715 -1.5532 0.0482275
LeftShoulder1  1.0419 -0.576511 -20.666
LeftArm  -4.99889 7.53667 -51.2562
LeftForeArm  36.1356 3.06911 -11.6147
LeftHand  -0.0263819 4.81587 2.8359
RightShoulder  0.929051 -0.521447 27.2377
RightArm  -22.5215 0.381469 47.3915
RightForeArm  59.5949 -0.712586 5.76607
RightHand  -0.0838435 -4.92465 -18.0771
LeftUpLeg  -18.4741 -3.08633 8.81696
LeftLeg  15.7474 11.2486 3.9085
LeftFoot  -1.40228 0.84857 -9.64687
LeftToes  -9.4837e-011 -7.11147e-011 -1.07582e-011
74
root  -35.6893 39.1286 -128.901 -178.236 35.7814 -179.841
RightUpLeg  -3.34388 -7.8064 -4.11465
RightLeg  18.2317 6.29495 2.35103
RightFoot  -14.7652 -0.0970505 0.0956486
RightToes  -5.28216e-011 1.2921e-014 -6.02303e-014
Spine  -6.04533 -2.51144 5.02631
Spine1  9.25247 -3.5863 2.36488
HEad  35.0798 -1.06136 0.0397317
LeftShoulder1  0.935586 -0.165629 -20.7857
LeftArm  -4.9074 8.53307 -50.667
LeftForeArm  36.0073 2.63561 -11.646
LeftHand  -0.0280704 4.79944 2.84881
RightShoulder  0.81574 -0.853747 27.0935
RightArm  -22.6163 1.00122 47.8063
RightForeArm  60.4208 -1.23441 5.60262
RightHand  -0.0726314 -4.99847 -18.1402
LeftUpLeg  -18.6779 -2.59159 9.41303
LeftLeg  9.54809 4.82083 3.3235
LeftFoot  2.97981 1.31485 -10.5881
LeftToes  -9.4837e-011 -7.11147e-011 -1.07582e-011
75
root  -35.4442 39.0246 -129.742 -178.032 37.3065 -179.88
RightUpLeg  -2.51413 -7.31801 -4.84907
RightLeg  18.4653 7.42858 2.60561
RightFoot  -15.8381 -0.0884201 0.477688
RightToes  -5.28216e-011 1.2921e-014 -6.02303e-014
Spine  -5.77474 -2.11648 4.92552
Spine1  9.08533 -3.06473 1.83283
HEad  35.0064 -0.49929 -0.20021
LeftShoulder1  0.862891 0.119731 -20.9257
LeftArm  -4.92455 9.54093 -50.1546
LeftForeArm  35.786 2.32526 -11.6529
LeftHand  -0.029634 4.76347 2.85535
RightShoulder  0.98154 -0.32236 26.7688
RightArm  -22.6602 0.784487 47.6291
RightForeArm  60.4011 -1.41562 5.58885
RightHand  -0.0683188 -5.02681 -18.1712
LeftUpLeg  -19.2252 0.259003 9.39556
LeftLeg  4.71739 -6.20955 3.71026
LeftFoot  6.4668 1.7294 -11.2627
LeftToes  -9.4837e-011 -7.11147e-011 -1.07582e-011
76
root  -35.2465 38.889 -130.601 -177.772 39.2032 -179.862
RightUpLeg  -2.07218 -5.16839 -5.39391
RightLeg  19.0418 7.31764 2.48914
RightFoot  -17.0757 -0.056557 1.17837
RightToes  -5.28216e-011 1.2921e-014 -6.02303e-014
Spine  -5.29053 -1.68461 4.8123
Spine1  8.95911 -2.44569 1.11379
HEad  35.006 0.148221 -0.231558
LeftShoulder1  0.749345 0.562677 -21.174
LeftArm  -4.91259 10.3239 -49.6285
LeftForeArm  36.089 2.03496 -11.6498
LeftHand  -0.032746 4.71192 2.70102
RightShoulder  1.08853 0.010251 26.7212
RightArm  -22.3801 0.895862 47.3822
RightForeArm  59.3344 -1.91105 5.69931
RightHand  0.420718 -8.09171 -18.6842
LeftUpLeg  -20.438 1.67738 9.94754
LeftLeg  2.69616 -16.9317 4.03843
LeftFoot  8.47517 1.94788 -11.419
LeftToes  -9.4837e-011 -7.11147e-011 -1.07582e-011
77
root  -35.1139 38.6668 -131.527 -177.158 41.5296 -179.623
RightUpLeg  -2.31435 -1.98546 -5.95266
RightLeg  20.3286 6.65345 2.49015
RightFoot  -18.5629 -0.00850806 1.85668
RightToes  -5.28216e-011 1.2921e-014 -6.02303e-014
Spine  -4.84542 -1.16597 5.1803
Spine1  8.79018 -1.67786 0.103958
HEad  34.6788 0.521443 0.0991577
LeftShoulder1  0.668493 0.852134 -21.0961
LeftArm  -4.45745 11.1468 -49.3005
LeftForeArm  35.8569 1.54752 -11.8208
LeftHand  -0.0374249 4.80236 2.56192
RightShoulder  1.17568 0.284837 26.655
RightArm  -22.8173 1.00038 47.3568
RightForeArm  59.9318 -2.76475 5.3575
RightHand  0.445325 -8.23665 -18.735
LeftUpLeg  -22.3626 1.27516 11.459
LeftLeg  4.28794 -24.3879 3.07981
LeftFoot  7.66647 2.18746 -13.2983
LeftToes  -9.4837e-011 -7.11147e-011 -1.07582e-011
78
root  -35.0652 38.4013 -132.503 -176.695 43.9611 -179.471
RightUpLeg  -2.6818 1.02601 -6.82546
RightLeg  21.9032 6.15562 2.50319
RightFoot  -20.0899 0.0761214 2.77372
RightToes  -5.28216e-011 1.2921e-014 -6.02303e-014
Spine  -3.9994 -0.772992 5.20777
Spine1  8.54078 -1.08698 -0.5807
HEad  34.2468 0.971586 0.244018
LeftShoulder1  0.605211 1.09754 -21.2689
LeftArm  -4.66823 11.8165 -49.0329
LeftForeArm  36.3383 1.10441 -11.7215
LeftHand  -0.0386269 4.67715 2.48592
RightShoulder  1.19406 0.361332 26.4698
RightArm  -23.3532 1.24686 47.5105
RightForeArm  61.0716 -3.46466 4.9317
RightHand  0.214627 -6.83051 -18.3943
LeftUpLeg  -24.1119 -1.74816 13.6808
LeftLeg  7.70773 -25.5605 1.28689
LeftFoot  8.74423 2.67807 -15.3484
LeftToes  -9.4837e-011 -7.11147e-011 -1.07582e-011
79
root  -35.0439 38.1491 -133.601 -176.49 46.8354 -179.569
RightUpLeg  -2.88226 3.49561 -8.28157
RightLeg  23.0969 6.56543 2.847
RightFoot  -21.3871 0.183517 3.73625
RightToes  -5.28216e-011 1.2921e-014 -6.02303e-014
Spine  -3.81229 -0.409163 5.14773
Spine1  9.08946 -0.412112 -1.69914
HEad  33.8826 1.47663 0.433302
LeftShoulder1  0.58768 1.16624 -21.3337
LeftArm  -4.18528 12.3947 -48.9176
LeftForeArm  35.7083 0.783689 -11.9156
LeftHand  -0.0394454 4.6964 2.62367
RightShoulder  1.2847 0.668686 26.2404
RightArm  -23.6545 1.08436 47.6137
RightForeArm  61.3173 -3.77274 4.7465
RightHand  0.203864 -6.76989 -18.3029
LeftUpLeg  -25.2585 -8.49751 16.8456
LeftLeg  11.9503 -20.7487 -1.01262
LeftFoot  10.1469 2.46858 -13.2898
LeftToes  -9.4837e-011 -7.11147e-011 -1.07582e-011
80
root  -35.0389 37.8512 -134.841 -175.547 49.8832 -178.638
RightUpLeg  -3.19295 6.09328 -9.35416
RightLeg  24.4257 7.29272 3.38909
RightFoot  -22.4 0.32728 4.94777
RightToes  -5.28216e-011 1.2921e-014 -6.02303e-014
Spine  -3.87006 0.00962855 5.39053
Spine1  9.47116 0.0238155 -1.70348
HEad  34.172 1.84143 0.421303
LeftShoulder1  0.590926 1.18577 -21.7661
LeftArm  -4.08745 13.1003 -49.0008
LeftForeArm  35.8608 0.709956 -11.9855
LeftHand  -0.0393612 4.69482 2.80474
RightShoulder  1.31346 0.800212 25.8968
RightArm  -23.1481 0.697269 47.2644
RightForeArm  61.4642 -3.63391 5.03894
RightHand  0.193624 -6.69567 -18.4114
LeftUpLeg  -26.2613 -15.766 21.104
LeftLeg  15.8878 -11.434 -2.76757
LeftFoot  5.74307 2.78992 -18.6653
LeftToes  -9.4837e-011 -7.11147e-011 -1.07582e-011
81
root  -35.0502 37.5704 -136.114 -174.307 52.8301 -177.263
RightUpLeg  -3.53012 9.29294 -10.3988
RightLeg  25.8602 7.9851 3.97689
RightFoot  -22.8978 0.53144 6.7814
RightToes  -5.28216e-011 1.2921e-014 -6.02303e-014
Spine  -3.70433 -0.0030122 5.34124
Spine1  9.53386 0.0310545 -1.69358
HEad  34.733 2.64913 0.619954
LeftShoulder1  0.555268 1.32077 -21.8722
LeftArm  -4.21647 14.2865 -49.3824
LeftForeArm  35.7435 0.447903 -11.9967
LeftHand  -0.0401596 4.68759 2.87776
RightShoulder  1.30448 0.747213 26.1001
RightArm  -22.233 0.619439 46.6169
RightForeArm  61.6198 -3.56264 5.50916
RightHand  0.176512 -6.6079 -18.1355
LeftUpLeg  -25.6201 -13.3873 20.3519
LeftLeg  20.1127 -11.8124 -4.43355
LeftFoot  -1.00801 1.70955 -18.6974
LeftToes  -9.4837e-011 -7.11147e-011 -1.07582e-011
82
root  -35.1051 37.3932 -137.234 -173.878 55.1296 -177.302
RightUpLeg  -4.77746 11.9989 -12.1776
RightLeg  27.8828 8.08079 4.39253
RightFoot  -22.6999 0.735215 8.92867
RightToes  -5.28216e-011 1.2921e-014 -6.02303e-014
Spine  -3.33136 -0.408494 3.28859
Spine1  9.37815 -0.391348 -1.63114
HEad  35.0149 3.31063 1.07625
LeftShoulder1  0.592457 1.18407 -21.8191
LeftArm  -3.93572 14.9111 -49.9628
LeftForeArm  34.9776 0.555814 -12.1821
LeftHand  -0.0409116 4.70429 3.0969
RightShoulder  1.24659 0.511663 26.5779
RightArm  -21.5848 0.592698 45.9332
RightForeArm  61.7108 -3.31266 5.85077
RightHand  0.140935 -6.36091 -18.414
LeftUpLeg  -25.1153 -9.69028 17.9142
LeftLeg  23.0774 -12.6046 -5.50464
LeftFoot  -5.54524 0.798467 -15.0469
LeftToes  -9.4837e-011 -7.11147e-011 -1.07582e-011
83
root  -35.2193 37.3412 -138.187 -174.059 56.6442 -178.425
RightUpLeg  -7.40405 14.1365 -14.5311
RightLeg  31.6247 7.92078 5.00232
RightFoot  -21.3882 0.845026 11.2368
RightToes  -5.28216e-011 1.2921e-014 -6.02303e-014
Spine  -2.90363 -0.911982 0.061486
Spine1  9.24746 -0.998925 -1.3293
HEad  34.5679 3.14555 1.98528
LeftShoulder1  0.735803 0.665547 -21.7611
LeftArm  -2.83189 14.3146 -50.468
LeftForeArm  34.6543 0.743886 -12.608
LeftHand  -0.0328403 5.06593 2.96233
RightShoulder  1.23692 0.459517 26.7791
RightArm  -21.9567 0.0404991 45.7514
RightForeArm  61.6965 -2.6696 5.75938
RightHand  0.155304 -6.44276 -18.5559
LeftUpLeg  -26.1137 -9.63676 15.9272
LeftLeg  25.9786 -11.1746 -5.54077
LeftFoot  -7.45292 0.510415 -13.6724
LeftToes  -9.4837e-011 -7.11147e-011 -1.07582e-011
